  0
SECTION
  2
BLOCKS
  0
ENDSEC
  0
SECTION
  2
ENTITIES
  0
LINE
  8
0
 10
10.1874
 20
-25.9823
 11
10.309
 21
-25.951
  0
LINE
  8
0
 10
10.309
 20
-25.951
 11
10.4258
 21
-25.9048
  0
LINE
  8
0
 10
10.4258
 20
-25.9048
 11
10.5358
 21
-25.8443
  0
LINE
  8
0
 10
10.5358
 20
-25.8443
 11
10.6374
 21
-25.7705
  0
LINE
  8
0
 10
10.6374
 20
-25.7705
 11
10.729
 21
-25.6845
  0
LINE
  8
0
 10
10.729
 20
-25.6845
 11
10.809
 21
-25.5878
  0
LINE
  8
0
 10
10.809
 20
-25.5878
 11
10.8763
 21
-25.4818
  0
LINE
  8
0
 10
10.8763
 20
-25.4818
 11
10.9298
 21
-25.3681
  0
LINE
  8
0
 10
10.9298
 20
-25.3681
 11
10.9686
 21
-25.2487
  0
LINE
  8
0
 10
10.9686
 20
-25.2487
 11
10.9921
 21
-25.1253
  0
LINE
  8
0
 10
10.9921
 20
-25.1253
 11
11
 21
-25
  0
LINE
  8
0
 10
11
 20
-25
 11
11
 21
25
  0
LINE
  8
0
 10
11
 20
25
 11
10.9921
 21
25.1253
  0
LINE
  8
0
 10
10.9921
 20
25.1253
 11
10.9686
 21
25.2487
  0
LINE
  8
0
 10
10.9686
 20
25.2487
 11
10.9298
 21
25.3681
  0
LINE
  8
0
 10
10.9298
 20
25.3681
 11
10.8763
 21
25.4818
  0
LINE
  8
0
 10
10.8763
 20
25.4818
 11
10.809
 21
25.5878
  0
LINE
  8
0
 10
10.809
 20
25.5878
 11
10.729
 21
25.6845
  0
LINE
  8
0
 10
10.729
 20
25.6845
 11
0.728958
 21
35.6845
  0
LINE
  8
0
 10
0.728958
 20
35.6845
 11
0.637421
 21
35.7705
  0
LINE
  8
0
 10
0.637421
 20
35.7705
 11
0.535812
 21
35.8443
  0
LINE
  8
0
 10
0.535812
 20
35.8443
 11
0.425766
 21
35.9048
  0
LINE
  8
0
 10
0.425766
 20
35.9048
 11
0.309006
 21
35.951
  0
LINE
  8
0
 10
0.309006
 20
35.951
 11
0.187378
 21
35.9823
  0
LINE
  8
0
 10
0.187378
 20
35.9823
 11
0.0627899
 21
35.998
  0
LINE
  8
0
 10
0.0627899
 20
35.998
 11
-0.0627899
 21
35.998
  0
LINE
  8
0
 10
-0.0627899
 20
35.998
 11
-0.187378
 21
35.9823
  0
LINE
  8
0
 10
-0.187378
 20
35.9823
 11
-0.309006
 21
35.951
  0
LINE
  8
0
 10
-0.309006
 20
35.951
 11
-0.425766
 21
35.9048
  0
LINE
  8
0
 10
-0.425766
 20
35.9048
 11
-0.535812
 21
35.8443
  0
LINE
  8
0
 10
-0.535812
 20
35.8443
 11
-0.637421
 21
35.7705
  0
LINE
  8
0
 10
-0.637421
 20
35.7705
 11
-0.728958
 21
35.6845
  0
LINE
  8
0
 10
-0.728958
 20
35.6845
 11
-10.729
 21
25.6845
  0
LINE
  8
0
 10
-10.729
 20
25.6845
 11
-10.809
 21
25.5878
  0
LINE
  8
0
 10
-10.809
 20
25.5878
 11
-10.8763
 21
25.4818
  0
LINE
  8
0
 10
-10.8763
 20
25.4818
 11
-10.9298
 21
25.3681
  0
LINE
  8
0
 10
-10.9298
 20
25.3681
 11
-10.9686
 21
25.2487
  0
LINE
  8
0
 10
-10.9686
 20
25.2487
 11
-10.9921
 21
25.1253
  0
LINE
  8
0
 10
-10.9921
 20
25.1253
 11
-11
 21
25
  0
LINE
  8
0
 10
-11
 20
25
 11
-11
 21
-25
  0
LINE
  8
0
 10
-11
 20
-25
 11
-10.9921
 21
-25.1253
  0
LINE
  8
0
 10
-10.9921
 20
-25.1253
 11
-10.9686
 21
-25.2487
  0
LINE
  8
0
 10
-10.9686
 20
-25.2487
 11
-10.9298
 21
-25.3681
  0
LINE
  8
0
 10
-10.9298
 20
-25.3681
 11
-10.8763
 21
-25.4818
  0
LINE
  8
0
 10
-10.8763
 20
-25.4818
 11
-10.809
 21
-25.5878
  0
LINE
  8
0
 10
-10.809
 20
-25.5878
 11
-10.729
 21
-25.6845
  0
LINE
  8
0
 10
-10.729
 20
-25.6845
 11
-10.6374
 21
-25.7705
  0
LINE
  8
0
 10
-10.6374
 20
-25.7705
 11
-10.5358
 21
-25.8443
  0
LINE
  8
0
 10
-10.5358
 20
-25.8443
 11
-10.4258
 21
-25.9048
  0
LINE
  8
0
 10
-10.4258
 20
-25.9048
 11
-10.309
 21
-25.951
  0
LINE
  8
0
 10
-10.309
 20
-25.951
 11
-10.1874
 21
-25.9823
  0
LINE
  8
0
 10
-10.1874
 20
-25.9823
 11
-10.0628
 21
-25.998
  0
LINE
  8
0
 10
-10.0628
 20
-25.998
 11
10.0628
 21
-25.998
  0
LINE
  8
0
 10
10.0628
 20
-25.998
 11
10.1874
 21
-25.9823
  0
LINE
  8
0
 10
-6.96278
 20
-22.898
 11
-7.08737
 21
-22.8823
  0
LINE
  8
0
 10
-7.08737
 20
-22.8823
 11
-7.20901
 21
-22.851
  0
LINE
  8
0
 10
-7.20901
 20
-22.851
 11
-7.32578
 21
-22.8048
  0
LINE
  8
0
 10
-7.32578
 20
-22.8048
 11
-7.43582
 21
-22.7443
  0
LINE
  8
0
 10
-7.43582
 20
-22.7443
 11
-7.53741
 21
-22.6705
  0
LINE
  8
0
 10
-7.53741
 20
-22.6705
 11
-7.62897
 21
-22.5845
  0
LINE
  8
0
 10
-7.62897
 20
-22.5845
 11
-7.70901
 21
-22.4878
  0
LINE
  8
0
 10
-7.70901
 20
-22.4878
 11
-7.77631
 21
-22.3817
  0
LINE
  8
0
 10
-7.77631
 20
-22.3817
 11
-7.82977
 21
-22.2681
  0
LINE
  8
0
 10
-7.82977
 20
-22.2681
 11
-7.86858
 21
-22.1487
  0
LINE
  8
0
 10
-7.86858
 20
-22.1487
 11
-7.89211
 21
-22.0253
  0
LINE
  8
0
 10
-7.89211
 20
-22.0253
 11
-7.89999
 21
-21.9
  0
LINE
  8
0
 10
-7.89999
 20
-21.9
 11
-7.89999
 21
21.9
  0
LINE
  8
0
 10
-7.89999
 20
21.9
 11
-7.89211
 21
22.0253
  0
LINE
  8
0
 10
-7.89211
 20
22.0253
 11
-7.86858
 21
22.1487
  0
LINE
  8
0
 10
-7.86858
 20
22.1487
 11
-7.82977
 21
22.2681
  0
LINE
  8
0
 10
-7.82977
 20
22.2681
 11
-7.77631
 21
22.3817
  0
LINE
  8
0
 10
-7.77631
 20
22.3817
 11
-7.70901
 21
22.4878
  0
LINE
  8
0
 10
-7.70901
 20
22.4878
 11
-7.62897
 21
22.5845
  0
LINE
  8
0
 10
-7.62897
 20
22.5845
 11
-7.53741
 21
22.6705
  0
LINE
  8
0
 10
-7.53741
 20
22.6705
 11
-7.43582
 21
22.7443
  0
LINE
  8
0
 10
-7.43582
 20
22.7443
 11
-7.32578
 21
22.8048
  0
LINE
  8
0
 10
-7.32578
 20
22.8048
 11
-7.20901
 21
22.851
  0
LINE
  8
0
 10
-7.20901
 20
22.851
 11
-7.08737
 21
22.8823
  0
LINE
  8
0
 10
-7.08737
 20
22.8823
 11
-6.96278
 21
22.898
  0
LINE
  8
0
 10
-6.96278
 20
22.898
 11
6.96278
 21
22.898
  0
LINE
  8
0
 10
6.96278
 20
22.898
 11
7.08737
 21
22.8823
  0
LINE
  8
0
 10
7.08737
 20
22.8823
 11
7.20901
 21
22.851
  0
LINE
  8
0
 10
7.20901
 20
22.851
 11
7.32578
 21
22.8048
  0
LINE
  8
0
 10
7.32578
 20
22.8048
 11
7.43582
 21
22.7443
  0
LINE
  8
0
 10
7.43582
 20
22.7443
 11
7.53741
 21
22.6705
  0
LINE
  8
0
 10
7.53741
 20
22.6705
 11
7.62897
 21
22.5845
  0
LINE
  8
0
 10
7.62897
 20
22.5845
 11
7.70901
 21
22.4878
  0
LINE
  8
0
 10
7.70901
 20
22.4878
 11
7.77631
 21
22.3817
  0
LINE
  8
0
 10
7.77631
 20
22.3817
 11
7.82977
 21
22.2681
  0
LINE
  8
0
 10
7.82977
 20
22.2681
 11
7.86858
 21
22.1487
  0
LINE
  8
0
 10
7.86858
 20
22.1487
 11
7.89211
 21
22.0253
  0
LINE
  8
0
 10
7.89211
 20
22.0253
 11
7.89999
 21
21.9
  0
LINE
  8
0
 10
7.89999
 20
21.9
 11
7.89999
 21
-21.9
  0
LINE
  8
0
 10
7.89999
 20
-21.9
 11
7.89211
 21
-22.0253
  0
LINE
  8
0
 10
7.89211
 20
-22.0253
 11
7.86858
 21
-22.1487
  0
LINE
  8
0
 10
7.86858
 20
-22.1487
 11
7.82977
 21
-22.2681
  0
LINE
  8
0
 10
7.82977
 20
-22.2681
 11
7.77631
 21
-22.3817
  0
LINE
  8
0
 10
7.77631
 20
-22.3817
 11
7.70901
 21
-22.4878
  0
LINE
  8
0
 10
7.70901
 20
-22.4878
 11
7.62897
 21
-22.5845
  0
LINE
  8
0
 10
7.62897
 20
-22.5845
 11
7.53741
 21
-22.6705
  0
LINE
  8
0
 10
7.53741
 20
-22.6705
 11
7.43582
 21
-22.7443
  0
LINE
  8
0
 10
7.43582
 20
-22.7443
 11
7.32578
 21
-22.8048
  0
LINE
  8
0
 10
7.32578
 20
-22.8048
 11
7.20901
 21
-22.851
  0
LINE
  8
0
 10
7.20901
 20
-22.851
 11
7.08737
 21
-22.8823
  0
LINE
  8
0
 10
7.08737
 20
-22.8823
 11
6.96278
 21
-22.898
  0
LINE
  8
0
 10
6.96278
 20
-22.898
 11
-6.96278
 21
-22.898
  0
ENDSEC
  0
SECTION
  2
OBJECTS
  0
DICTIONARY
  0
ENDSEC
  0
EOF
